<svg xmlns="http://www.w3.org/2000/svg" viewBox="0 0 512 512" role="img" aria-labelledby="title desc">
  <title id="title">flythrough.osu favicon</title>
  <desc id="desc">A space-themed Ohio State Block O favicon for a 3D course galaxy simulator.</desc>
  <defs>
    <radialGradient id="space" cx="58%" cy="36%" r="76%">
      <stop offset="0" stop-color="#263f72"/>
      <stop offset=".32" stop-color="#111a35"/>
      <stop offset=".7" stop-color="#050814"/>
      <stop offset="1" stop-color="#01030a"/>
    </radialGradient>
    <radialGradient id="nebula" cx="50%" cy="50%" r="50%">
      <stop offset="0" stop-color="#355dff" stop-opacity=".38"/>
      <stop offset=".48" stop-color="#7a284f" stop-opacity=".2"/>
      <stop offset="1" stop-color="#01030a" stop-opacity="0"/>
    </radialGradient>
    <radialGradient id="scarlet" cx="38%" cy="24%" r="82%">
      <stop offset="0" stop-color="#ff263d"/>
      <stop offset=".52" stop-color="#bb0000"/>
      <stop offset="1" stop-color="#7b0010"/>
    </radialGradient>
    <filter id="glow" x="-20%" y="-20%" width="140%" height="140%">
      <feGaussianBlur in="SourceAlpha" stdDeviation="5"/>
      <feColorMatrix values="0 0 0 0 0.91 0 0 0 0 0.96 0 0 0 0 1 0 0 0 .8 0"/>
      <feMerge>
        <feMergeNode/>
        <feMergeNode in="SourceGraphic"/>
      </feMerge>
    </filter>
    <clipPath id="roundCrop">
      <rect width="512" height="512" rx="96"/>
    </clipPath>
  </defs>

  <g clip-path="url(#roundCrop)">
    <rect width="512" height="512" fill="url(#space)"/>
    <ellipse cx="296" cy="240" rx="260" ry="138" fill="url(#nebula)" transform="rotate(-18 296 240)"/>

    <path d="M29 338c108-134 257-181 462-133" fill="none" stroke="#5575b8" stroke-width="3" stroke-linecap="round" opacity=".42"/>
    <path d="M39 361c107-116 254-156 444-111" fill="none" stroke="#edf4ff" stroke-width="1.6" stroke-linecap="round" opacity=".64"/>
    <path d="M77 214c101-65 217-80 348-44" fill="none" stroke="#83a9ff" stroke-width="1.2" stroke-linecap="round" opacity=".32"/>

    <g fill="#fff">
      <circle cx="70" cy="77" r="3.2" opacity=".9"/>
      <circle cx="49" cy="128" r="1.2" opacity=".62"/>
      <circle cx="112" cy="149" r="2.2" opacity=".75"/>
      <circle cx="125" cy="94" r="1.1" opacity=".72"/>
      <circle cx="143" cy="54" r="1.8" opacity=".8"/>
      <circle cx="174" cy="138" r="1.4" opacity=".68"/>
      <circle cx="205" cy="103" r="2.4" opacity=".7"/>
      <circle cx="235" cy="36" r="1.3" opacity=".78"/>
      <circle cx="264" cy="125" r="1.2" opacity=".7"/>
      <circle cx="310" cy="62" r="2.1" opacity=".85"/>
      <circle cx="350" cy="35" r="1.2" opacity=".7"/>
      <circle cx="394" cy="100" r="3.4" opacity=".86"/>
      <circle cx="430" cy="60" r="1.5" opacity=".76"/>
      <circle cx="452" cy="178" r="2.3" opacity=".72"/>
      <circle cx="477" cy="272" r="1.3" opacity=".7"/>
      <circle cx="457" cy="332" r="1.6" opacity=".62"/>
      <circle cx="430" cy="399" r="2.6" opacity=".76"/>
      <circle cx="406" cy="462" r="1.4" opacity=".72"/>
      <circle cx="358" cy="454" r="2" opacity=".7"/>
      <circle cx="297" cy="476" r="1.2" opacity=".66"/>
      <circle cx="239" cy="432" r="1.1" opacity=".62"/>
      <circle cx="92" cy="429" r="2.8" opacity=".78"/>
      <circle cx="55" cy="374" r="1.4" opacity=".7"/>
      <circle cx="47" cy="269" r="2" opacity=".7"/>
      <circle cx="33" cy="217" r="1.2" opacity=".68"/>
      <circle cx="149" cy="471" r="1.3" opacity=".65"/>
      <circle cx="189" cy="417" r="1.2" opacity=".72"/>
      <circle cx="331" cy="155" r="1.2" opacity=".75"/>
      <circle cx="379" cy="186" r="1.1" opacity=".62"/>
      <circle cx="250" cy="254" r="1.8" opacity=".9"/>
      <circle cx="273" cy="275" r="1.2" opacity=".74"/>
      <circle cx="236" cy="292" r="1.1" opacity=".7"/>
      <circle cx="285" cy="232" r="1.4" opacity=".82"/>
    </g>

    <circle cx="397" cy="194" r="9" fill="#edf4ff" opacity=".92"/>
    <circle cx="397" cy="194" r="16" fill="none" stroke="#edf4ff" stroke-width="2" opacity=".22"/>
    <circle cx="101" cy="357" r="5.5" fill="#9fc6ff" opacity=".92"/>
    <circle cx="101" cy="357" r="10" fill="none" stroke="#9fc6ff" stroke-width="1.4" opacity=".22"/>

    <g filter="url(#glow)">
      <path
        d="M116 120 187 49h138l71 71v272l-72 72H187l-71-72V120Zm92 94v84l19 19h58l19-19v-84l-19-19h-58l-19 19Z"
        fill="#111827"
        fill-rule="evenodd"
        stroke="#f8fbff"
        stroke-linejoin="round"
        stroke-width="29"/>
      <path
        d="M116 120 187 49h138l71 71v272l-72 72H187l-71-72V120Zm92 94v84l19 19h58l19-19v-84l-19-19h-58l-19 19Z"
        fill="url(#scarlet)"
        fill-rule="evenodd"
        stroke="#a7abb1"
        stroke-linejoin="round"
        stroke-width="13"/>
      <path
        d="M144 132 198 78h116l54 54v248l-55 55H198l-54-55V132Zm36 67v115l34 34h84l34-34V199l-34-34h-84l-34 34Z"
        fill="none"
        stroke="#f8fbff"
        stroke-linejoin="round"
        stroke-width="10"/>
    </g>
  </g>
</svg>
